<svg width="162" height="112" viewBox="0 0 162 112" fill="none" xmlns="http://www.w3.org/2000/svg">
<path fill-rule="evenodd" clip-rule="evenodd" d="M56.5594 81.8369C63.1232 75.5379 67.2091 66.6766 67.2091 56.8609C67.2091 37.7453 51.7128 22.249 32.5971 22.249C25.3916 22.249 18.7004 24.4508 13.1595 28.2182C12.2268 28.8524 11.079 29.1609 10.0047 28.8173C4.20819 26.9635 0.0112305 21.532 0.0112305 15.1203C0.0112305 7.17977 6.44832 0.742676 14.3889 0.742676H146.764C154.704 0.742676 161.141 7.17977 161.141 15.1203C161.141 21.4868 157.003 26.8868 151.27 28.7775C150.19 29.1338 149.03 28.8275 148.089 28.1893C142.556 24.4395 135.881 22.249 128.694 22.249C109.578 22.249 94.0819 37.7453 94.0819 56.8609C94.0819 66.481 98.0066 75.1844 104.342 81.4574C105.942 83.6849 105.804 86.7824 103.901 88.8636L84.9218 109.612C82.587 112.164 78.5655 112.164 76.2307 109.612L57.252 88.8636C55.4542 86.8982 55.2311 84.0264 56.5594 81.8369Z" fill="#212121"/>
</svg>
