<svg width="508" height="113" viewBox="0 0 508 113" fill="none" xmlns="http://www.w3.org/2000/svg">
<path d="M215.018 112.527C204.273 112.527 194.72 110.022 186.365 105.008C178.004 99.9822 171.54 93.1743 166.972 84.5841C162.416 75.9825 160.141 66.6015 160.141 56.4354C160.141 44.5501 163.133 34.3611 169.127 25.8798C175.133 17.3985 182.835 11.0261 192.233 6.76254C201.642 2.49897 211.258 0.367188 221.069 0.367188C232.026 0.367188 241.659 2.9345 249.974 8.06911C258.284 13.2037 264.656 19.983 269.092 28.4013C273.538 36.8253 275.762 45.765 275.762 55.2205C275.762 65.719 272.988 75.3578 267.441 84.1256C261.905 92.8992 254.496 99.8275 245.206 104.916C235.911 109.994 225.848 112.527 215.018 112.527ZM221.069 108.882C228.909 108.882 235.969 106.979 242.249 103.174C248.542 99.369 253.51 93.776 257.149 86.395C260.782 79.0025 262.605 70.2289 262.605 60.08C262.605 49.232 260.587 39.5989 256.553 31.1749C252.519 22.7395 246.834 16.1607 239.499 11.4387C232.175 6.70523 223.613 4.33276 213.803 4.33276C201.104 4.33276 191.178 8.43014 184.027 16.6192C176.875 24.8139 173.299 36.0688 173.299 50.3839C173.299 61.2376 175.316 71.1286 179.35 80.0684C183.385 89.0081 189.035 96.0453 196.313 101.18C203.585 106.315 211.837 108.882 221.069 108.882Z" fill="#1E1E1E"/>
<path d="M385.867 108.355C386.096 108.355 386.211 108.71 386.211 109.409C386.211 110.097 386.096 110.441 385.867 110.441H363.54C360.652 110.441 355.225 105.661 347.266 96.0913C339.3 86.5097 329.844 73.3523 318.888 56.6189C315.77 57.3066 312.538 57.6504 309.191 57.6504C308.504 57.6504 305.902 57.4785 301.398 57.1232V96.4122C301.398 99.9881 301.742 102.59 302.429 104.206C303.128 105.828 304.492 106.928 306.509 107.507C308.527 108.074 311.724 108.355 316.114 108.355C316.464 108.355 316.641 108.71 316.641 109.409C316.641 110.097 316.464 110.441 316.114 110.441C312.538 110.441 309.707 110.383 307.633 110.257L295.69 110.097L283.931 110.257C281.851 110.383 278.911 110.441 275.106 110.441C274.877 110.441 274.762 110.097 274.762 109.409C274.762 108.71 274.877 108.355 275.106 108.355C279.49 108.355 282.716 108.074 284.779 107.507C286.854 106.928 288.269 105.805 289.02 104.137C289.782 102.458 290.166 99.885 290.166 96.4122V16.2755C290.166 12.8257 289.811 10.287 289.111 8.66524C288.424 7.04921 287.071 5.92601 285.054 5.29565C283.037 4.65382 279.834 4.33291 275.45 4.33291C275.094 4.33291 274.922 3.98907 274.922 3.3014C274.922 2.61373 275.094 2.26989 275.45 2.26989L283.931 2.43035C288.773 2.65957 292.693 2.77418 295.69 2.77418C298.223 2.77418 300.584 2.72261 302.773 2.61373C304.974 2.49338 306.819 2.37877 308.32 2.26989C312.595 1.92032 316.464 1.74268 319.919 1.74268C329.042 1.74268 336.079 3.82288 341.031 7.97757C345.993 12.138 348.48 17.6737 348.48 24.5963C348.48 30.8197 346.658 36.4415 343.025 41.4672C339.403 46.4815 334.589 50.4299 328.584 53.3181C338.268 67.2893 346.429 78.2233 353.065 86.1201C359.712 94.0226 365.603 99.7073 370.738 103.174C375.873 106.63 380.916 108.355 385.867 108.355ZM301.398 52.9743C304.286 53.4327 307.69 53.6619 311.621 53.6619C320.618 53.6619 327.054 51.7078 330.922 47.7938C334.784 43.8683 336.721 37.8111 336.721 29.6163C336.721 20.6193 334.727 14.1552 330.738 10.224C326.761 6.2985 320.962 4.33291 313.34 4.33291C308.848 4.33291 305.73 5.14665 303.988 6.76268C302.257 8.38444 301.398 11.6681 301.398 16.6193V52.9743Z" fill="#1E1E1E"/>
<path d="M506.883 108.355C507.341 108.355 507.571 108.711 507.571 109.41C507.571 110.097 507.341 110.441 506.883 110.441C504.694 110.441 501.295 110.327 496.682 110.097C492.063 109.868 488.717 109.754 486.642 109.754C484.104 109.754 480.872 109.868 476.946 110.097C473.244 110.327 470.419 110.441 468.465 110.441C468.006 110.441 467.777 110.097 467.777 109.41C467.777 108.711 468.006 108.355 468.465 108.355C472.728 108.355 475.834 107.96 477.794 107.163C479.766 106.355 480.751 104.963 480.751 102.992C480.751 101.387 480.001 98.9114 478.505 95.5647L463.101 62.8315H421.909L410.998 88.4587C409.377 92.3899 408.569 95.559 408.569 97.9715C408.569 101.547 409.978 104.178 412.809 105.857C415.634 107.524 419.875 108.355 425.531 108.355C426.11 108.355 426.402 108.711 426.402 109.41C426.402 110.097 426.11 110.441 425.531 110.441C423.451 110.441 420.454 110.327 416.546 110.097C412.156 109.868 408.345 109.754 405.107 109.754C402.11 109.754 398.649 109.868 394.723 110.097C391.268 110.327 388.385 110.441 386.082 110.441C385.503 110.441 385.211 110.097 385.211 109.41C385.211 108.711 385.503 108.355 386.082 108.355C389.302 108.355 392.042 107.754 394.288 106.545C396.534 105.341 398.666 103.209 400.683 100.149C402.712 97.0948 404.935 92.6765 407.354 86.9L443.892 0.711786C444.121 0.362219 444.517 0.18457 445.084 0.18457C445.663 0.18457 446.012 0.362219 446.138 0.711786L486.986 86.7396C490.912 95.2667 494.258 101.009 497.026 103.954C499.788 106.888 503.078 108.355 506.883 108.355ZM423.285 59.3702H461.542L441.279 16.6199L423.285 59.3702Z" fill="#1E1E1E"/>
<path fill-rule="evenodd" clip-rule="evenodd" d="M56.5594 82.8369C63.1232 76.5379 67.2091 67.6766 67.2091 57.8609C67.2091 38.7453 51.7128 23.249 32.5971 23.249C25.3916 23.249 18.7004 25.4508 13.1595 29.2182C12.2268 29.8524 11.079 30.1609 10.0047 29.8173C4.20819 27.9635 0.0112305 22.532 0.0112305 16.1203C0.0112305 8.17977 6.44832 1.74268 14.3889 1.74268H146.764C154.704 1.74268 161.141 8.17977 161.141 16.1203C161.141 22.4868 157.003 27.8868 151.27 29.7775C150.19 30.1338 149.03 29.8275 148.089 29.1893C142.556 25.4395 135.881 23.249 128.694 23.249C109.578 23.249 94.0819 38.7453 94.0819 57.8609C94.0819 67.481 98.0066 76.1844 104.342 82.4574C105.942 84.6849 105.804 87.7824 103.901 89.8636L84.9218 110.612C82.587 113.164 78.5655 113.164 76.2307 110.612L57.252 89.8636C55.4542 87.8982 55.2311 85.0264 56.5594 82.8369Z" fill="#1E1E1E"/>
</svg>
